<mxfile host="www.draw.io" modified="2023-05-08T04:12:00.749Z" agent="Mozilla/5.0 (Windows NT 10.0; Win64; x64) AppleWebKit/537.36 (KHTML, like Gecko) Chrome/113.0.0.0 Safari/537.36" etag="9vxCsfn-sqz4NxV3yIYc" version="21.2.9" type="device">
  <diagram id="C5RBs43oDa-KdzZeNtuy" name="Page-1">
    <mxGraphModel dx="944" dy="1500" grid="1" gridSize="10" guides="1" tooltips="1" connect="1" arrows="1" fold="1" page="1" pageScale="1" pageWidth="827" pageHeight="1169" math="0" shadow="0">
      <root>
        <mxCell id="WIyWlLk6GJQsqaUBKTNV-0" />
        <mxCell id="WIyWlLk6GJQsqaUBKTNV-1" parent="WIyWlLk6GJQsqaUBKTNV-0" />
        <mxCell id="56Q6Ti4guwLSB6XdxsnC-1" value="" style="edgeStyle=orthogonalEdgeStyle;rounded=0;orthogonalLoop=1;jettySize=auto;html=1;entryX=0.5;entryY=0;entryDx=0;entryDy=0;exitX=0.5;exitY=1;exitDx=0;exitDy=0;fontSize=40;" parent="WIyWlLk6GJQsqaUBKTNV-1" source="56Q6Ti4guwLSB6XdxsnC-0" target="-ehSZKwI9B30rcVdJ-T3-0" edge="1">
          <mxGeometry relative="1" as="geometry">
            <mxPoint x="315" y="80" as="sourcePoint" />
            <mxPoint x="320" y="120" as="targetPoint" />
          </mxGeometry>
        </mxCell>
        <mxCell id="56Q6Ti4guwLSB6XdxsnC-0" value="&lt;b style=&quot;font-size: 40px;&quot;&gt;&lt;font face=&quot;Times New Roman&quot; style=&quot;font-size: 40px;&quot;&gt;Start&lt;/font&gt;&lt;/b&gt;" style="ellipse;whiteSpace=wrap;html=1;fontSize=40;" parent="WIyWlLk6GJQsqaUBKTNV-1" vertex="1">
          <mxGeometry x="265" y="40" width="205" height="60" as="geometry" />
        </mxCell>
        <mxCell id="56Q6Ti4guwLSB6XdxsnC-19" value="" style="edgeStyle=orthogonalEdgeStyle;rounded=0;orthogonalLoop=1;jettySize=auto;html=1;fontSize=40;" parent="WIyWlLk6GJQsqaUBKTNV-1" source="56Q6Ti4guwLSB6XdxsnC-5" target="56Q6Ti4guwLSB6XdxsnC-18" edge="1">
          <mxGeometry relative="1" as="geometry" />
        </mxCell>
        <mxCell id="56Q6Ti4guwLSB6XdxsnC-5" value="&lt;font face=&quot;Times New Roman&quot; style=&quot;font-size: 40px;&quot;&gt;&lt;span style=&quot;font-size: 40px;&quot;&gt;&lt;b style=&quot;font-size: 40px;&quot;&gt;Multiply the Noisy Image Matrix with the Window Function (Blackman Window)&lt;br style=&quot;font-size: 40px;&quot;&gt;w(n) = 0.42 - 0.5cos(2*n*PI)/(N-1) + 0.08cos(4*n*PI)/(N-1)&lt;br style=&quot;font-size: 40px;&quot;&gt;&lt;/b&gt;&lt;/span&gt;&lt;/font&gt;" style="rounded=0;whiteSpace=wrap;html=1;fontSize=40;glass=0;strokeWidth=1;shadow=0;" parent="WIyWlLk6GJQsqaUBKTNV-1" vertex="1">
          <mxGeometry x="6.869999999999999" y="800" width="721.25" height="230" as="geometry" />
        </mxCell>
        <mxCell id="56Q6Ti4guwLSB6XdxsnC-15" value="" style="edgeStyle=orthogonalEdgeStyle;rounded=0;orthogonalLoop=1;jettySize=auto;html=1;exitX=0.5;exitY=1;exitDx=0;exitDy=0;entryX=0.5;entryY=0;entryDx=0;entryDy=0;fontSize=40;" parent="WIyWlLk6GJQsqaUBKTNV-1" source="56Q6Ti4guwLSB6XdxsnC-14" target="56Q6Ti4guwLSB6XdxsnC-5" edge="1">
          <mxGeometry relative="1" as="geometry" />
        </mxCell>
        <mxCell id="56Q6Ti4guwLSB6XdxsnC-14" value="&lt;font face=&quot;Times New Roman&quot; style=&quot;font-size: 40px;&quot;&gt;&lt;b style=&quot;font-size: 40px;&quot;&gt;Define the Filter&amp;nbsp;&lt;/b&gt;&lt;/font&gt;&lt;font face=&quot;Times New Roman&quot; style=&quot;font-size: 40px;&quot;&gt;&lt;span style=&quot;font-size: 40px;&quot;&gt;&lt;b style=&quot;font-size: 40px;&quot;&gt;Coefficients (h0,h1,....,h50)&lt;/b&gt;&lt;/span&gt;&lt;/font&gt;" style="rounded=0;whiteSpace=wrap;html=1;fontSize=40;glass=0;strokeWidth=1;shadow=0;" parent="WIyWlLk6GJQsqaUBKTNV-1" vertex="1">
          <mxGeometry x="155" y="570" width="425" height="170" as="geometry" />
        </mxCell>
        <mxCell id="56Q6Ti4guwLSB6XdxsnC-17" value="&lt;b style=&quot;font-size: 40px;&quot;&gt;&lt;font face=&quot;Times New Roman&quot; style=&quot;font-size: 40px;&quot;&gt;End&lt;/font&gt;&lt;/b&gt;" style="ellipse;whiteSpace=wrap;html=1;fontSize=40;" parent="WIyWlLk6GJQsqaUBKTNV-1" vertex="1">
          <mxGeometry x="257.5" y="1300" width="220" height="80" as="geometry" />
        </mxCell>
        <mxCell id="56Q6Ti4guwLSB6XdxsnC-20" value="" style="edgeStyle=orthogonalEdgeStyle;rounded=0;orthogonalLoop=1;jettySize=auto;html=1;fontSize=40;" parent="WIyWlLk6GJQsqaUBKTNV-1" source="56Q6Ti4guwLSB6XdxsnC-18" target="56Q6Ti4guwLSB6XdxsnC-17" edge="1">
          <mxGeometry relative="1" as="geometry" />
        </mxCell>
        <mxCell id="56Q6Ti4guwLSB6XdxsnC-18" value="&lt;b style=&quot;font-size: 40px;&quot;&gt;&lt;font style=&quot;font-size: 40px;&quot; face=&quot;Times New Roman&quot;&gt;Display the Noisy and Filtered Images&lt;/font&gt;&lt;/b&gt;" style="shape=parallelogram;perimeter=parallelogramPerimeter;whiteSpace=wrap;html=1;fixedSize=1;fontSize=40;" parent="WIyWlLk6GJQsqaUBKTNV-1" vertex="1">
          <mxGeometry x="220.36" y="1100" width="297.14" height="130" as="geometry" />
        </mxCell>
        <mxCell id="jf3tkivL1tUUWmLAt3op-2" value="" style="edgeStyle=orthogonalEdgeStyle;rounded=0;orthogonalLoop=1;jettySize=auto;html=1;" edge="1" parent="WIyWlLk6GJQsqaUBKTNV-1" source="56Q6Ti4guwLSB6XdxsnC-21" target="56Q6Ti4guwLSB6XdxsnC-14">
          <mxGeometry relative="1" as="geometry" />
        </mxCell>
        <mxCell id="56Q6Ti4guwLSB6XdxsnC-21" value="&lt;b style=&quot;border-color: var(--border-color); font-size: 40px;&quot;&gt;&lt;font style=&quot;border-color: var(--border-color); font-size: 40px;&quot; face=&quot;Times New Roman&quot;&gt;Select Filter Length (N=51)&lt;/font&gt;&lt;/b&gt;" style="shape=parallelogram;perimeter=parallelogramPerimeter;whiteSpace=wrap;html=1;fixedSize=1;fontSize=40;" parent="WIyWlLk6GJQsqaUBKTNV-1" vertex="1">
          <mxGeometry x="187.5" y="430" width="360" height="90" as="geometry" />
        </mxCell>
        <mxCell id="jf3tkivL1tUUWmLAt3op-0" value="" style="edgeStyle=orthogonalEdgeStyle;rounded=0;orthogonalLoop=1;jettySize=auto;html=1;" edge="1" parent="WIyWlLk6GJQsqaUBKTNV-1" source="-ehSZKwI9B30rcVdJ-T3-0" target="-ehSZKwI9B30rcVdJ-T3-1">
          <mxGeometry relative="1" as="geometry" />
        </mxCell>
        <mxCell id="-ehSZKwI9B30rcVdJ-T3-0" value="&lt;b style=&quot;border-color: var(--border-color); font-size: 40px;&quot;&gt;&lt;font style=&quot;border-color: var(--border-color); font-size: 40px;&quot; face=&quot;Times New Roman&quot;&gt;Input an Image&lt;/font&gt;&lt;/b&gt;" style="shape=parallelogram;perimeter=parallelogramPerimeter;whiteSpace=wrap;html=1;fixedSize=1;fontSize=40;" parent="WIyWlLk6GJQsqaUBKTNV-1" vertex="1">
          <mxGeometry x="217.5" y="130" width="300" height="60" as="geometry" />
        </mxCell>
        <mxCell id="jf3tkivL1tUUWmLAt3op-1" value="" style="edgeStyle=orthogonalEdgeStyle;rounded=0;orthogonalLoop=1;jettySize=auto;html=1;" edge="1" parent="WIyWlLk6GJQsqaUBKTNV-1" source="-ehSZKwI9B30rcVdJ-T3-1" target="56Q6Ti4guwLSB6XdxsnC-21">
          <mxGeometry relative="1" as="geometry" />
        </mxCell>
        <mxCell id="-ehSZKwI9B30rcVdJ-T3-1" value="&lt;font face=&quot;Times New Roman&quot; style=&quot;font-size: 40px;&quot;&gt;&lt;span style=&quot;font-size: 40px;&quot;&gt;&lt;b style=&quot;font-size: 40px;&quot;&gt;Add Noise to the Image (Say Gaussian Noise)&lt;/b&gt;&lt;/span&gt;&lt;/font&gt;" style="rounded=0;whiteSpace=wrap;html=1;fontSize=40;glass=0;strokeWidth=1;shadow=0;" parent="WIyWlLk6GJQsqaUBKTNV-1" vertex="1">
          <mxGeometry x="198.75" y="230" width="337.5" height="140" as="geometry" />
        </mxCell>
      </root>
    </mxGraphModel>
  </diagram>
</mxfile>
